<svg width="64" height="64" xmlns="http://www.w3.org/2000/svg"><path fill="#F29400" d="M 0 0 L 64 0 L 64 64 L 0 64 L 0 0 Z" id="background"></path><g transform="matrix(1, 0, 0, 1, -0.6345, -1.932499)"><path fill="#FFFFFF" d="M 42.624 40.104 L 47.293 40.104 C 45.831 43.071 43.588 45.395 40.562 47.076 C 37.1 49.005 32.875 49.969 27.89 49.969 C 23.067 49.969 18.903 49.155 15.394 47.525 C 11.886 45.895 9.278 43.491 7.567 40.311 C 5.858 37.133 5.002 33.673 5.002 29.931 C 5.002 25.824 5.974 21.999 7.918 18.453 C 9.862 14.91 12.522 12.249 15.898 10.474 C 19.275 8.698 23.133 7.81 27.475 7.81 C 31.158 7.81 34.431 8.526 37.296 9.958 C 40.16 11.39 42.35 13.426 43.862 16.064 C 45.375 18.702 46.131 21.585 46.131 24.713 C 46.131 28.44 44.984 31.809 42.69 34.82 C 39.81 38.62 36.12 40.52 31.618 40.52 C 30.405 40.52 29.491 40.308 28.878 39.885 C 28.263 39.461 27.854 38.839 27.65 38.022 C 27.676 38.05 32.892 35.087 33.614 34.951 C 33.704 34.935 33.698 35.591 33.865 35.774 C 34.034 35.956 34.234 36.048 34.469 36.048 C 35.171 36.048 36.076 35.624 37.187 34.776 C 38.678 33.666 39.883 32.175 40.805 30.303 C 41.725 28.433 42.186 26.497 42.186 24.493 C 42.186 20.898 40.884 17.892 38.282 15.471 C 35.681 13.053 32.049 11.844 27.387 11.844 C 23.425 11.844 20.067 12.652 17.312 14.267 C 14.557 15.881 12.482 18.154 11.086 21.085 C 9.69 24.015 8.992 27.067 8.992 30.238 C 8.992 33.322 9.771 36.129 11.327 38.657 C 12.884 41.186 15.069 43.031 17.882 44.192 C 20.696 45.354 23.915 45.935 27.54 45.935 C 31.033 45.935 34.037 45.45 36.551 44.478 C 39.064 43.505 41.089 42.048 42.624 40.104 Z M 20.429 17.453 L 24.846 17.453 L 24.472 19.224 C 25.414 18.443 26.297 17.886 27.12 17.551 C 27.942 17.215 28.825 17.047 29.767 17.047 C 31.574 17.047 33.029 17.67 34.127 18.915 C 35.226 20.16 35.775 22.017 35.775 24.485 C 35.775 27.592 34.828 30.218 32.933 32.361 C 31.309 34.191 29.388 35.105 27.168 35.105 C 24.884 35.105 23.157 34.18 21.988 32.329 L 20.12 41.277 L 15.46 41.277 L 20.429 17.453 Z M 23.238 27.343 C 23.238 28.686 23.566 29.728 24.221 30.469 C 24.876 31.211 25.647 31.581 26.535 31.581 C 27.305 31.581 28.046 31.303 28.76 30.746 C 29.475 30.188 30.067 29.263 30.539 27.969 C 31.01 26.675 31.245 25.476 31.245 24.372 C 31.245 23.083 30.937 22.096 30.319 21.408 C 29.702 20.721 28.917 20.376 27.964 20.376 C 27.076 20.376 26.267 20.693 25.536 21.326 C 24.806 21.959 24.239 22.891 23.839 24.12 C 23.439 25.349 23.238 26.423 23.238 27.343 Z" style=""></path><g><ellipse style="fill: rgb(255, 255, 255); stroke: rgb(242, 148, 0); stroke-width: 2px;" cx="44.942" cy="44.73" rx="15.325" ry="15.325"></ellipse><path d="M 53.232 50.426 L 44.445 41.639 C 44.035 41.229 43.826 40.66 43.869 40.083 C 43.954 38.991 43.578 37.87 42.744 37.033 C 41.987 36.277 40.996 35.903 40.006 35.903 C 39.633 35.903 39.259 35.956 38.899 36.061 L 41.23 38.393 C 41.483 39.562 39.789 41.275 38.606 41.017 L 36.275 38.685 C 36.169 39.047 36.115 39.421 36.115 39.795 C 36.115 40.786 36.49 41.775 37.246 42.533 C 38.081 43.368 39.203 43.743 40.296 43.658 C 40.872 43.614 41.441 43.824 41.85 44.234 L 50.638 53.02 C 50.982 53.364 51.449 53.557 51.935 53.557 C 52.941 53.557 53.769 52.742 53.769 51.722 C 53.769 51.253 53.59 50.784 53.232 50.426 Z M 51.93 52.454 C 51.524 52.454 51.195 52.124 51.195 51.718 C 51.195 51.312 51.524 50.982 51.93 50.982 C 52.337 50.982 52.666 51.312 52.666 51.718 C 52.666 52.124 52.337 52.454 51.93 52.454 Z M 46.093 41.207 L 50.012 37.295 C 50.442 36.865 51.004 36.65 51.566 36.65 C 52.128 36.65 52.691 36.865 53.121 37.295 C 53.554 37.727 53.769 38.293 53.769 38.858 C 53.769 39.42 53.555 39.982 53.127 40.41 L 49.209 44.322 L 48.445 43.558 L 52.172 39.837 C 52.297 39.713 52.295 39.512 52.172 39.389 C 52.047 39.264 51.847 39.264 51.723 39.388 L 47.995 43.109 L 47.34 42.454 L 51.068 38.732 C 51.192 38.608 51.191 38.408 51.068 38.283 C 50.943 38.159 50.742 38.158 50.618 38.283 L 46.891 42.004 L 46.093 41.207 Z M 43.497 47.96 L 39.652 51.774 C 39.485 51.942 39.341 52.133 39.23 52.343 L 39.008 52.77 L 37.463 53.557 L 36.851 52.944 L 37.605 51.365 L 38.031 51.143 C 38.242 51.032 38.444 50.901 38.612 50.732 L 42.457 46.918 L 43.497 47.96 Z" style="fill: rgb(242, 148, 0);"></path></g></g></svg>